   <svg display="none;" xmlns="http://www.w3.org/2000/svg">
       <symbol id="baby" viewBox="0 0 387.039 387.039">
          <circle cx="112.809" cy="233.169" r="15.368"/>
	<circle cx="274.229" cy="233.169" r="15.368"/>
           <path d="M387.039,226.647c0-22.261-16.136-40.811-37.324-44.602v-6.717c0-86.127-70.069-156.196-156.195-156.196
		c-86.127,0-156.196,70.069-156.196,156.196v6.717C16.136,185.837,0,204.387,0,226.647c0,22.453,16.414,41.134,37.871,44.7
		c3.02,34.414,18.765,59.834,46.942,75.653c25.058,14.068,60.615,20.906,108.707,20.906c48.091,0,83.649-6.839,108.707-20.906
		c28.176-15.819,43.921-41.238,46.941-75.653C370.625,267.782,387.039,249.1,387.039,226.647z M16,226.647
		c0-13.395,9.032-24.713,21.323-28.205v56.41C25.032,251.361,16,240.043,16,226.647z M333.715,258.757
		c0,35.135-12.862,59.436-39.321,74.291c-22.603,12.69-55.599,18.858-100.874,18.858s-78.272-6.168-100.874-18.858
		c-26.46-14.855-39.322-39.156-39.322-74.291v-83.429c0-63.309,42.185-116.941,99.918-134.29
		c43.983,0.556,67.407,32.306,67.407,55.296c0,17.608-14.325,31.934-31.934,31.934c-13.204,0-23.947-10.743-23.947-23.947
		c0-9.681,7.876-17.558,17.558-17.558c4.418,0,8-3.582,8-8s-3.582-8-8-8c-18.504,0-33.558,15.054-33.558,33.558
		c0,22.027,17.92,39.947,39.947,39.947c26.431,0,47.934-21.503,47.934-47.934c0-16.605-8.343-34.47-22.317-47.79
		c-5.59-5.328-11.95-9.807-18.89-13.387c76.42,1.034,138.273,63.51,138.273,140.171V258.757z M349.715,254.853v-56.41
		c12.292,3.492,21.324,14.81,21.324,28.205S362.006,251.361,349.715,254.853z"/>
      <path d="M224.459,255.203c-17.059,17.061-44.82,17.061-61.879,0c-3.125-3.124-8.189-3.124-11.314,0
		c-3.124,3.124-3.124,8.19,0,11.314c11.649,11.649,26.952,17.474,42.254,17.474s30.604-5.825,42.254-17.474
		c3.124-3.124,3.124-8.19,0-11.314C232.648,252.079,227.584,252.079,224.459,255.203z"/>
       </symbol>
       <symbol id="calendar" viewBox="0 0 512 512">
           <g>
	<g>
		<path d="M452,40h-24V0h-40v40H124V0H84v40H60C26.916,40,0,66.916,0,100v352c0,33.084,26.916,60,60,60h392
			c33.084,0,60-26.916,60-60V100C512,66.916,485.084,40,452,40z M472,452c0,11.028-8.972,20-20,20H60c-11.028,0-20-8.972-20-20V188
			h432V452z M472,148H40v-48c0-11.028,8.972-20,20-20h24v40h40V80h264v40h40V80h24c11.028,0,20,8.972,20,20V148z"/>
	</g>
</g>
<g>
	<g>
		<rect x="76" y="230" width="40" height="40"/>
	</g>
</g>
<g>
	<g>
		<rect x="156" y="230" width="40" height="40"/>
	</g>
</g>
<g>
	<g>
		<rect x="236" y="230" width="40" height="40"/>
	</g>
</g>
<g>
	<g>
		<rect x="316" y="230" width="40" height="40"/>
	</g>
</g>
<g>
	<g>
		<rect x="396" y="230" width="40" height="40"/>
	</g>
</g>
<g>
	<g>
		<rect x="76" y="310" width="40" height="40"/>
	</g>
</g>
<g>
	<g>
		<rect x="156" y="310" width="40" height="40"/>
	</g>
</g>
<g>
	<g>
		<rect x="236" y="310" width="40" height="40"/>
	</g>
</g>
<g>
	<g>
		<rect x="316" y="310" width="40" height="40"/>
	</g>
</g>
<g>
	<g>
		<rect x="76" y="390" width="40" height="40"/>
	</g>
</g>
<g>
	<g>
		<rect x="156" y="390" width="40" height="40"/>
	</g>
</g>
<g>
	<g>
		<rect x="236" y="390" width="40" height="40"/>
	</g>
</g>
<g>
	<g>
		<rect x="316" y="390" width="40" height="40"/>
	</g>
</g>
<g>
	<g>
		<rect x="396" y="310" width="40" height="40"/>
	</g>
</g>
       </symbol>
       <symbol id="home" viewBox="0 1 511 511.999">
           <path d="m498.699219 222.695312c-.015625-.011718-.027344-.027343-.039063-.039062l-208.855468-208.847656c-8.902344-8.90625-20.738282-13.808594-33.328126-13.808594-12.589843 0-24.425781 4.902344-33.332031 13.808594l-208.746093 208.742187c-.070313.070313-.144532.144531-.210938.214844-18.28125 18.386719-18.25 48.21875.089844 66.558594 8.378906 8.382812 19.441406 13.234375 31.273437 13.746093.484375.046876.96875.070313 1.457031.070313h8.320313v153.695313c0 30.417968 24.75 55.164062 55.167969 55.164062h81.710937c8.285157 0 15-6.71875 15-15v-120.5c0-13.878906 11.292969-25.167969 25.171875-25.167969h48.195313c13.878906 0 25.167969 11.289063 25.167969 25.167969v120.5c0 8.28125 6.714843 15 15 15h81.710937c30.421875 0 55.167969-24.746094 55.167969-55.164062v-153.695313h7.71875c12.585937 0 24.421875-4.902344 33.332031-13.8125 18.359375-18.367187 18.367187-48.253906.027344-66.632813zm-21.242188 45.421876c-3.238281 3.238281-7.542969 5.023437-12.117187 5.023437h-22.71875c-8.285156 0-15 6.714844-15 15v168.695313c0 13.875-11.289063 25.164062-25.167969 25.164062h-66.710937v-105.5c0-30.417969-24.746094-55.167969-55.167969-55.167969h-48.195313c-30.421875 0-55.171875 24.75-55.171875 55.167969v105.5h-66.710937c-13.875 0-25.167969-11.289062-25.167969-25.164062v-168.695313c0-8.285156-6.714844-15-15-15h-22.328125c-.234375-.015625-.464844-.027344-.703125-.03125-4.46875-.078125-8.660156-1.851563-11.800781-4.996094-6.679688-6.679687-6.679688-17.550781 0-24.234375.003906 0 .003906-.003906.007812-.007812l.011719-.011719 208.847656-208.839844c3.234375-3.238281 7.535157-5.019531 12.113281-5.019531 4.574219 0 8.875 1.78125 12.113282 5.019531l208.800781 208.796875c.03125.03125.066406.0625.097656.09375 6.644531 6.691406 6.632813 17.539063-.03125 24.207032zm0 0"/>
       </symbol>
       <symbol id="locate" viewBox="0 0 512 512">
           <g>
	<g>
		<path d="M256,0C156.748,0,76,80.748,76,180c0,33.534,9.289,66.26,26.869,94.652l142.885,230.257
			c2.737,4.411,7.559,7.091,12.745,7.091c0.04,0,0.079,0,0.119,0c5.231-0.041,10.063-2.804,12.75-7.292L410.611,272.22
			C427.221,244.428,436,212.539,436,180C436,80.748,355.252,0,256,0z M384.866,256.818L258.272,468.186l-129.905-209.34
			C113.734,235.214,105.8,207.95,105.8,180c0-82.71,67.49-150.2,150.2-150.2S406.1,97.29,406.1,180
			C406.1,207.121,398.689,233.688,384.866,256.818z"/>
	</g>
</g>
<g>
	<g>
		<path d="M256,90c-49.626,0-90,40.374-90,90c0,49.309,39.717,90,90,90c50.903,0,90-41.233,90-90C346,130.374,305.626,90,256,90z
			 M256,240.2c-33.257,0-60.2-27.033-60.2-60.2c0-33.084,27.116-60.2,60.2-60.2s60.1,27.116,60.1,60.2
			C316.1,212.683,289.784,240.2,256,240.2z"/>
	</g>
</g>
       </symbol>
       <symbol id="star" viewBox="0 0 16 16">
           <path d="m12.853 16.0905c-.0688477 0-.138184-.014183-.203125-.0430384l-4.61816-2.05606-4.61816 2.05606c-.170898.0758066-.370117.0493956-.515625-.0670033-.145996-.116888-.214355-.30567-.177734-.489072l1.01855-5.10249-3.56055-3.5668c-.130371-.130582-.178223-.322299-.125-.499343.0532227-.176555.199707-.309583.380371-.345774l5.10352-1.02265 2.0376-4.59239c.161133-.361913.75293-.361913.914063 0l2.0376 4.59239 5.10352 1.02265c.180664.0361915.327148.169219.380371.345774.0532227.177044.0053711.368761-.125.499343l-3.56055 3.5668 1.01855 5.10249c.0366211.183402-.0317383.372184-.177734.489072-.0903321.072383-.201172.110042-.3125.110042zm-4.82129-3.14816c.0693359 0 .138672.014183.203125.0430384l3.93848 1.75381-.881836-4.41681c-.0327148-.164328.0185547-.334036.136719-.452392l3.08936-3.09436-4.44092-.890111c-.15918-.0317899-.292969-.138897-.358887-.287575l-1.68604-3.7996-1.68604 3.7996c-.065918.148678-.199707.255785-.358887.287575l-4.44092.890111 3.08936 3.09436c.118164.118356.169434.288064.136719.452392l-.881836 4.41681 3.93848-1.75381c.064453-.0288553.133789-.0430384.203125-.0430384z" transform="translate(-.032 -.09)"/>
       </symbol>
       <symbol id="adult" viewBox="-42 0 512 512.001">
    <path d="m210.351562 246.632812c33.882813 0 63.21875-12.152343 87.195313-36.128906 23.96875-23.972656 36.125-53.304687 36.125-87.191406 0-33.875-12.152344-63.210938-36.128906-87.191406-23.976563-23.96875-53.3125-36.121094-87.191407-36.121094-33.886718 0-63.21875 12.152344-87.191406 36.125s-36.128906 53.308594-36.128906 87.1875c0 33.886719 12.15625 63.222656 36.128906 87.195312 23.980469 23.96875 53.316406 36.125 87.191406 36.125zm-65.972656-189.292968c18.394532-18.394532 39.972656-27.335938 65.972656-27.335938 25.996094 0 47.578126 8.941406 65.976563 27.335938 18.394531 18.398437 27.339844 39.980468 27.339844 65.972656 0 26-8.945313 47.578125-27.339844 65.976562-18.398437 18.398438-39.980469 27.339844-65.976563 27.339844-25.992187 0-47.570312-8.945312-65.972656-27.339844-18.398437-18.394531-27.34375-39.976562-27.34375-65.976562 0-25.992188 8.945313-47.574219 27.34375-65.972656zm0 0"/><path d="m426.128906 393.703125c-.691406-9.976563-2.089844-20.859375-4.148437-32.351563-2.078125-11.578124-4.753907-22.523437-7.957031-32.527343-3.3125-10.339844-7.808594-20.550781-13.375-30.335938-5.769532-10.15625-12.550782-19-20.160157-26.277343-7.957031-7.613282-17.699219-13.734376-28.964843-18.199219-11.226563-4.441407-23.667969-6.691407-36.976563-6.691407-5.226563 0-10.28125 2.144532-20.042969 8.5-6.007812 3.917969-13.035156 8.449219-20.878906 13.460938-6.707031 4.273438-15.792969 8.277344-27.015625 11.902344-10.949219 3.542968-22.066406 5.339844-33.042969 5.339844-10.96875 0-22.085937-1.796876-33.042968-5.339844-11.210938-3.621094-20.300782-7.625-26.996094-11.898438-7.769532-4.964844-14.800782-9.496094-20.898438-13.46875-9.753906-6.355468-14.808594-8.5-20.035156-8.5-13.3125 0-25.75 2.253906-36.972656 6.699219-11.257813 4.457031-21.003906 10.578125-28.96875 18.199219-7.609375 7.28125-14.390625 16.121094-20.15625 26.273437-5.558594 9.785157-10.058594 19.992188-13.371094 30.339844-3.199219 10.003906-5.875 20.945313-7.953125 32.523437-2.0625 11.476563-3.457031 22.363282-4.148437 32.363282-.679688 9.777344-1.023438 19.953125-1.023438 30.234375 0 26.726562 8.496094 48.363281 25.25 64.320312 16.546875 15.746094 38.4375 23.730469 65.066406 23.730469h246.53125c26.621094 0 48.511719-7.984375 65.0625-23.730469 16.757813-15.945312 25.253906-37.589843 25.253906-64.324219-.003906-10.316406-.351562-20.492187-1.035156-30.242187zm-44.90625 72.828125c-10.933594 10.40625-25.449218 15.464844-44.378906 15.464844h-246.527344c-18.933594 0-33.449218-5.058594-44.378906-15.460938-10.722656-10.207031-15.933594-24.140625-15.933594-42.585937 0-9.59375.316406-19.066407.949219-28.160157.617187-8.921874 1.878906-18.722656 3.75-29.136718 1.847656-10.285156 4.199219-19.9375 6.996094-28.675782 2.683593-8.378906 6.34375-16.675781 10.882812-24.667968 4.332031-7.617188 9.316407-14.152344 14.816407-19.417969 5.144531-4.925781 11.628906-8.957031 19.269531-11.980469 7.066406-2.796875 15.007812-4.328125 23.628906-4.558594 1.050781.558594 2.921875 1.625 5.953125 3.601563 6.167969 4.019531 13.277344 8.605469 21.136719 13.625 8.859375 5.648437 20.273437 10.75 33.910156 15.152344 13.941406 4.507812 28.160156 6.796875 42.273437 6.796875 14.113282 0 28.335938-2.289063 42.269532-6.792969 13.648437-4.410156 25.058594-9.507813 33.929687-15.164063 8.042969-5.140624 14.953125-9.59375 21.121094-13.617187 3.03125-1.972656 4.902344-3.042969 5.953125-3.601563 8.625.230469 16.566406 1.761719 23.636719 4.558594 7.636719 3.023438 14.121093 7.058594 19.265625 11.980469 5.5 5.261719 10.484375 11.796875 14.816406 19.421875 4.542969 7.988281 8.207031 16.289062 10.886719 24.660156 2.800781 8.75 5.15625 18.398438 7 28.675782 1.867187 10.433593 3.132812 20.238281 3.75 29.144531v.007812c.636719 9.058594.957031 18.527344.960937 28.148438-.003906 18.449219-5.214844 32.378906-15.9375 42.582031zm0 0"/>
</symbol>
   </svg>